<?xml version="1.0" encoding="utf-8"?>
<!-- Generator: Adobe Illustrator 24.1.0, SVG Export Plug-In . SVG Version: 6.00 Build 0)  -->
<svg version="1.1" id="Layer_1" xmlns="http://www.w3.org/2000/svg" xmlns:xlink="http://www.w3.org/1999/xlink" x="0px" y="0px"
	 viewBox="0 0 543.4 187.8" style="enable-background:new 0 0 543.4 187.8;" xml:space="preserve">
<style type="text/css">
	.st0{fill:#231F20;}
	.st1{fill:#F36E29;}
</style>
<path class="st0" d="M232.4,170.9c0,2.5-1.2,3.7-3.6,3.7h-35.5c-2.4,0-3.6-1.2-3.6-3.7V17.7c0-2.5,1.2-3.7,3.6-3.7h35.5
	c2.4,0,3.6,1.2,3.6,3.7L232.4,170.9z"/>
<polygon class="st1" points="92.4,129.1 44,129.1 44,173.7 92.4,173.7 140.9,173.7 140.9,129.1 "/>
<polyline class="st1" points="119.6,14 92.4,14 65.3,14 65.3,58.7 92.4,58.7 119.6,58.7 "/>
<path class="st1" d="M62.4,14H45.7c-3.9,2.4-4.2,11.5-4.2,11.5V48c0,3.2-0.3,6.3-0.8,9.4c-0.9,9.6-22.5,50.9-25.3,55.4
	c-2,3.3-2.6,7.2-1.8,11l3.5,14.3c0.6,3.2,1,6.4,1.2,9.6v17.1c0.9,9.4,4.8,8.9,4.8,8.9h17.9v-45.9l14-25.6c0,0,7-15.8,7.4-29.3v-0.1
	L62.4,14z"/>
<path class="st1" d="M169.5,112.8c-2.9-4.5-24.4-45.8-25.3-55.4c-0.5-3.1-0.8-6.3-0.8-9.4V25.5c0,0-0.3-9.1-4.2-11.5h-16.7v59v0.1
	c0.4,13.4,7.4,29.2,7.4,29.2l14,25.6v45.8h17.9c0,0,3.9,0.6,4.8-8.9v-17.1c0.2-3.2,0.6-6.4,1.2-9.6l3.5-14.3
	C172.1,120,171.5,116.1,169.5,112.8z"/>
<path class="st0" d="M314.1,49.6h53.1V14h-59.7c-20.1,1-29.3,14.5-29.3,14.5c-12.3,13.3-23.7,27.3-34.4,42
	c-3.3,6.1-3.9,12.6-3.8,17.8c-0.1,6,1.5,12,4.4,17.2c0,0,15.7,31.2,33.8,53.6c0,0,9.2,13.6,29.3,14.5h59.7v-35.6h-53.1
	c0,0-8.2,0-11.9-4.3c0,0-18.5-27.3-19.1-34.2c-0.8-3.7-0.8-7.5-0.2-11.3l0,0c0.8-9.7,19.4-34.5,19.4-34.5
	C305.9,49.6,314.1,49.6,314.1,49.6z"/>
<path class="st0" d="M422.6,170.9c0,2.5-1.3,3.7-3.9,3.7h-38.5c-2.6,0-3.9-1.2-3.9-3.7V17.7c0-2.5,1.3-3.7,3.9-3.7h38.5
	c2.6,0,3.9,1.2,3.9,3.7L422.6,170.9z"/>
<path class="st0" d="M464.2,92.4h-38.1v35.5h53.4c15.5-0.7,22.6-10.3,22.6-10.3c9.4-9.4,18.3-19.4,26.6-29.9c2.2-3.9,3.2-8.3,3-12.7
	c0-4.3-1.1-8.6-3.4-12.3c0,0-12.1-22.3-26.1-38.2c0,0-7.1-9.7-22.6-10.4h-53.4v35.4h38.1c0,0,6.6,0.2,9.6,2.8
	c0,0,13.8,9.7,14.3,14.6c0.6,2.6,0.6,5.3,0.2,8l0,0c-0.6,6.9-14.5,14.7-14.5,14.7C471.9,91.3,464.2,92.4,464.2,92.4z"/>
</svg>
